<?xml version="1.0" standalone="no"?>
<!DOCTYPE svg PUBLIC "-//W3C//DTD SVG 20010904//EN"
 "http://www.w3.org/TR/2001/REC-SVG-20010904/DTD/svg10.dtd">
<svg version="1.0" xmlns="http://www.w3.org/2000/svg"
 width="1112.000000pt" height="1112.000000pt" viewBox="0 0 1112.000000 1112.000000"
 preserveAspectRatio="xMidYMid meet">
<metadata>
Created by potrace 1.11, written by Peter Selinger 2001-2013
</metadata>
<g transform="translate(0.000000,1112.000000) scale(0.100000,-0.100000)"
fill="#000000" stroke="none">
<path d="M2330 7792 c-33 -2 -160 -17 -240 -28 -19 -2 -46 -7 -60 -10 -14 -3
-36 -8 -50 -11 -63 -11 -186 -46 -262 -73 -46 -17 -87 -32 -93 -34 -41 -12
-78 -29 -175 -76 -96 -46 -89 -42 -224 -130 -134 -87 -135 -89 -197 -140 -148
-123 -307 -301 -416 -467 -94 -143 -226 -424 -257 -548 -2 -5 -6 -17 -9 -25
-10 -25 -55 -232 -66 -301 -25 -157 -33 -430 -18 -609 29 -348 152 -723 326
-995 14 -22 25 -42 26 -45 0 -6 52 -75 129 -173 61 -78 222 -237 313 -310 188
-149 427 -280 658 -360 72 -25 132 -45 135 -44 3 0 46 -10 95 -21 190 -44 311
-56 545 -57 177 0 384 10 400 20 3 2 26 6 50 10 139 19 410 101 550 166 l66
30 65 -29 c35 -17 98 -42 139 -57 41 -14 86 -31 98 -36 29 -11 249 -64 312
-75 55 -9 76 -11 160 -19 36 -4 76 -8 90 -11 37 -6 306 -5 375 1 340 33 605
104 860 231 158 79 174 88 320 193 109 78 260 217 357 329 126 144 276 391
350 577 22 54 77 211 83 235 53 219 62 271 81 470 9 92 9 288 0 395 -7 76 -9
94 -22 190 -15 105 -84 363 -123 460 -65 157 -193 405 -221 425 -4 3 -13 15
-19 28 -14 26 -12 24 -97 127 -64 78 -251 267 -302 305 -19 14 -39 30 -46 37
-29 26 -246 164 -316 200 -131 67 -332 146 -444 174 -91 22 -224 50 -265 55
-25 3 -47 7 -50 9 -15 8 -171 18 -317 20 -169 1 -320 -9 -434 -30 -14 -3 -36
-6 -50 -9 -47 -7 -244 -57 -285 -71 -136 -48 -164 -58 -205 -76 -25 -11 -56
-26 -69 -33 -21 -12 -33 -9 -110 24 -199 86 -424 148 -634 176 -15 2 -47 6
-70 10 -43 6 -373 11 -437 6z m365 -516 c99 -11 228 -35 284 -52 l53 -15 -79
-82 c-105 -110 -187 -213 -259 -327 -64 -100 -174 -316 -174 -341 0 -8 -4 -19
-9 -24 -18 -21 -88 -245 -110 -355 -19 -95 -21 -104 -27 -150 -3 -25 -8 -56
-11 -70 -3 -14 -7 -133 -8 -265 -3 -267 8 -378 60 -607 28 -123 83 -282 139
-398 14 -30 26 -58 26 -61 0 -3 19 -39 43 -80 24 -41 52 -89 63 -108 44 -77
197 -271 268 -341 42 -41 76 -78 76 -81 0 -7 -114 -35 -250 -61 -37 -7 -146
-12 -255 -13 -206 0 -268 6 -421 39 -481 104 -883 415 -1106 858 -86 173 -153
407 -177 623 -12 117 -6 374 13 495 30 189 100 413 173 549 42 77 131 216 162
250 11 13 21 27 21 31 0 8 130 141 185 190 92 81 266 200 293 200 6 0 12 4 14
8 7 20 294 129 385 147 107 22 198 36 258 41 39 4 71 7 72 8 6 5 246 -2 298
-8z m2095 0 c41 -5 84 -10 95 -12 11 -3 36 -7 55 -10 19 -3 43 -7 52 -10 10
-3 30 -7 44 -10 43 -8 215 -65 272 -90 29 -13 55 -23 57 -24 12 -2 128 -68
190 -109 86 -56 224 -171 286 -237 56 -61 149 -180 149 -192 0 -5 7 -15 15
-22 20 -17 83 -129 126 -225 132 -293 183 -603 155 -945 -8 -91 -23 -191 -38
-245 -5 -22 -12 -51 -14 -65 -5 -30 -42 -147 -55 -175 -10 -22 -32 -77 -34
-85 -4 -19 -83 -167 -118 -222 -103 -165 -258 -330 -420 -446 -211 -153 -522
-272 -782 -300 -81 -9 -377 -8 -445 1 -144 18 -303 54 -298 67 2 4 44 51 93
103 100 106 192 227 262 344 46 78 156 301 166 338 3 11 18 56 34 100 16 44
30 82 30 85 0 3 5 21 11 40 13 41 57 278 67 365 10 86 13 386 4 480 -22 245
-86 509 -172 710 -34 79 -125 254 -158 301 -16 23 -29 47 -29 52 0 6 -3 12 -7
14 -5 2 -40 46 -80 98 -39 52 -107 132 -150 177 l-78 83 50 14 c46 13 66 18
135 31 63 13 79 15 145 21 38 4 71 7 72 8 6 5 249 -2 313 -8z m-1156 -398
c105 -94 143 -135 214 -228 112 -148 182 -283 258 -495 28 -79 70 -264 79
-355 3 -30 8 -122 10 -205 5 -233 -23 -422 -97 -640 -36 -108 -123 -299 -151
-334 -6 -7 -16 -21 -22 -31 -60 -107 -193 -260 -319 -367 l-50 -42 -35 26
c-60 45 -110 94 -185 179 -122 139 -164 201 -246 369 -97 196 -142 357 -175
620 -5 45 -6 337 -1 375 2 14 7 48 10 75 14 103 48 253 78 340 60 179 182 405
284 526 22 27 190 194 239 239 20 18 40 9 109 -52z"/>
<path d="M7592 5562 l3 -2137 275 0 275 0 3 653 2 652 528 1 c567 1 577 2 697
13 44 5 91 9 105 11 14 1 39 5 55 9 17 3 39 8 50 10 185 36 327 79 455 138 80
37 239 125 250 138 3 4 30 25 60 47 79 58 219 209 284 306 80 121 142 256 176
387 12 44 15 59 25 110 3 14 7 36 10 49 17 89 24 321 11 441 -18 172 -73 365
-141 496 -81 154 -133 224 -260 349 -145 143 -334 259 -540 331 -96 34 -109
38 -155 48 -11 3 -23 7 -28 9 -4 3 -23 8 -42 11 -19 3 -66 12 -105 20 -38 8
-101 17 -140 21 -38 4 -79 10 -90 12 -11 3 -413 7 -893 8 l-872 3 2 -2136z
m1728 1615 c25 -4 63 -9 85 -12 126 -18 302 -73 410 -128 247 -126 395 -310
461 -572 4 -16 8 -32 9 -35 9 -31 18 -175 17 -250 -5 -199 -61 -380 -161 -520
-25 -36 -139 -152 -177 -181 -121 -93 -363 -188 -549 -214 -22 -3 -49 -7 -60
-10 -59 -12 -309 -18 -710 -17 -247 0 -460 1 -472 1 l-23 1 0 976 0 975 563
-4 c309 -2 582 -7 607 -10z"/>
</g>
</svg>
